<svg width="830" height="429" viewBox="0 0 830 429" fill="none" xmlns="http://www.w3.org/2000/svg">
<g opacity="0.05">
<path d="M255.506 406.587C257.624 406.587 259.287 406.001 260.527 404.837C261.759 403.695 262.346 401.903 262.346 399.467C262.346 398.451 262.181 397.612 261.848 396.944C261.515 396.276 261.063 395.775 260.498 395.41C259.924 395.067 259.287 394.81 258.603 394.647C257.907 394.494 257.19 394.422 256.456 394.422H249.325L246.983 406.587H255.506ZM257.485 387.486C259.396 387.486 261.173 387.671 262.797 388.077C264.401 388.465 265.801 389.124 266.97 390.031C268.13 390.933 269.05 392.156 269.717 393.677C270.371 395.198 270.696 397.066 270.696 399.309C270.696 401.551 270.312 403.546 269.502 405.306C268.696 407.057 267.607 408.55 266.257 409.769C264.886 410.987 263.333 411.917 261.548 412.562C259.772 413.198 257.878 413.532 255.899 413.532H245.583L242.697 428.117H234.389L242.266 387.486H257.485Z" fill="#595757"/>
<path d="M316.982 405.896C318.121 405.896 319.197 405.769 320.227 405.508C321.256 405.259 322.172 404.889 322.969 404.362C323.779 403.87 324.412 403.197 324.889 402.371C325.37 401.559 325.594 400.575 325.594 399.434C325.594 398.346 325.429 397.439 325.1 396.776C324.754 396.126 324.311 395.607 323.737 395.273C323.172 394.926 322.518 394.705 321.771 394.592C321.033 394.475 320.256 394.42 319.433 394.42H311.505L309.265 405.896H316.982ZM322.606 387.485C324.311 387.43 325.864 387.593 327.256 387.949C328.669 388.315 329.838 388.929 330.847 389.772C331.855 390.643 332.602 391.753 333.146 393.125C333.69 394.488 333.943 396.158 333.943 398.13C333.943 399.488 333.732 400.806 333.306 402.056C332.884 403.31 332.277 404.429 331.492 405.39C330.716 406.37 329.787 407.168 328.728 407.818C327.661 408.463 326.501 408.874 325.201 409.077V409.176C326.762 409.718 327.8 410.643 328.323 411.947C328.872 413.251 329.112 414.718 329.112 416.347C329.112 417.254 329.07 418.341 328.982 419.636C328.923 420.886 328.88 422.141 328.88 423.391C328.88 424.307 328.923 425.169 328.982 425.968C329.062 426.798 329.201 427.497 329.433 428.115H321.269C321.176 427.615 321.075 427.163 321.024 426.721C320.944 426.292 320.893 425.85 320.893 425.372C320.893 424.041 320.973 422.637 321.113 421.252C321.227 419.885 321.315 418.504 321.315 417.146C321.315 416.153 321.176 415.345 320.906 414.718C320.653 414.091 320.277 413.594 319.784 413.22C319.332 412.832 318.746 412.579 318.071 412.452C317.404 412.326 316.649 412.258 315.839 412.258H307.965L304.809 428.115H296.519L304.455 387.485H322.606Z" fill="#595757"/>
<path d="M377.931 387.484L369.885 428.115H361.535L369.522 387.484H377.931Z" fill="#595757"/>
<path d="M420.496 387.484L430.825 416.4H430.947L436.373 387.484H444.044L435.989 428.115H427.648L417.209 399.6H417.108L411.674 428.115H403.889L411.885 387.484H420.496Z" fill="#595757"/>
<path d="M472.986 394.993L474.471 387.485H506.195L504.706 394.993H493.318L486.821 428.115H478.424L484.905 394.993H472.986Z" fill="#595757"/>
<path d="M545.484 387.484L537.438 428.115H529.075L537.075 387.484H545.484Z" fill="#595757"/>
<path d="M588.051 387.484L598.367 416.4H598.481L603.924 387.484H611.578L603.553 428.115H595.178L584.752 399.6H584.642L579.216 428.115H571.448L579.448 387.484H588.051Z" fill="#595757"/>
<path d="M666.062 423.941C664.813 425.774 663.379 427.069 661.708 427.845C660.054 428.63 658.286 429 656.493 429C651.088 429 646.945 427.466 644.008 424.397C641.093 421.32 639.629 416.888 639.629 411.094C639.629 407.796 640.097 404.659 641.063 401.699C642.012 398.734 643.384 396.135 645.19 393.883C646.966 391.627 649.16 389.845 651.734 388.509C654.307 387.173 657.189 386.528 660.375 386.528C662.615 386.528 664.695 386.808 666.64 387.367C668.606 387.949 670.311 388.811 671.762 389.998C673.214 391.162 674.374 392.647 675.21 394.466C676.058 396.266 676.501 398.41 676.501 400.923H668.138C668.054 398.41 667.324 396.641 665.965 395.607C664.611 394.547 662.775 394.032 660.446 394.032C658.286 394.032 656.463 394.547 654.873 395.607C653.286 396.641 651.987 397.99 650.97 399.628C649.949 401.284 649.194 403.139 648.7 405.151C648.215 407.191 647.953 409.154 647.953 411.094C647.953 412.498 648.122 413.815 648.455 415.083C648.789 416.315 649.324 417.439 650.016 418.387C650.725 419.366 651.59 420.119 652.691 420.692C653.763 421.266 655.071 421.559 656.586 421.559C658.176 421.559 659.56 421.329 660.716 420.9C661.881 420.458 662.856 419.876 663.691 419.122C664.543 418.364 665.227 417.439 665.771 416.369C666.32 415.291 666.779 414.1 667.121 412.832H658.358L659.691 406.144H675.804L671.438 428.116H666.172V423.941H666.062Z" fill="#595757"/>
<path d="M697.435 359.744C823.148 271.812 829.401 178.065 829.401 178.065L390.699 57.7333L411.027 359.744H697.435Z" fill="#231916"/>
<path d="M273.245 359.744H696.175C809.04 236.651 769.772 124.352 769.772 124.352L322.095 -6.10352e-05C339.149 180.136 294.927 309.131 273.245 359.744Z" fill="#FDD000"/>
<path d="M268.999 359.744H693.777C757.387 243.352 727.65 149.59 726.034 149.852C726.034 149.852 419.297 63.1573 270.644 20.7079C270.644 20.7079 363.257 195.149 268.999 359.744Z" fill="#E4007F"/>
<path d="M253.591 359.744H687.96C712.33 271.253 713.389 191.634 652.471 166.332L336.132 104.054L202.019 103.626C202.019 103.626 324.656 224.119 253.591 359.744Z" fill="#595757"/>
<path d="M502.204 216.138L83.3239 105.328C83.3239 105.328 104.251 48.8445 190.282 50.6044C190.282 50.6044 510.794 117.345 652.469 166.333C652.469 166.333 552.502 141.5 502.204 216.138Z" fill="#00A7EA"/>
<path d="M77.6176 281.649C78.031 279.623 78.1998 277.777 78.1998 276.117C78.1998 270.323 76.394 265.512 72.7359 261.695C69.0651 257.863 64.5463 255.959 59.2216 255.959H40.2222L29.7374 308.643L47.9815 308.905C55.0572 308.905 61.3523 306.369 66.8795 301.279C72.373 296.175 75.9636 289.632 77.6176 281.649ZM105.722 279.948C102.84 294.654 96.427 305.958 86.4696 313.878C76.1155 322.149 62.3776 326.278 45.2769 326.278H0L17.5142 238.378H69.833C81.3389 238.378 90.3555 241.334 96.849 247.223C103.342 253.134 106.6 261.049 106.6 270.972C106.6 272.913 106.536 274.357 106.477 275.327C106.376 276.297 106.148 277.854 105.722 279.948Z" fill="#595757"/>
<path d="M156.809 298.862H150.273C142.21 298.862 136.561 299.963 133.384 302.161C130.561 304.114 129.181 306.885 129.181 310.509C129.181 312.011 130.004 313.194 131.641 314.069C133.282 314.954 135.341 315.396 137.814 315.396C140.193 315.396 142.603 315.021 145.02 314.277C147.451 313.51 149.581 312.449 151.396 311.028C152.948 309.182 154.096 307.373 154.843 305.613C155.59 303.844 156.235 301.601 156.809 298.862ZM176.192 326.28H151.396L153.1 317.282C151.062 319.29 148.885 321.068 146.565 322.611C144.252 324.132 141.793 325.522 139.172 326.745C135.966 327.345 133.173 327.81 130.785 328.121C128.413 328.423 125.721 328.586 122.764 328.586C116.836 328.586 112.266 327.656 109.051 325.793C105.026 323.505 103.009 319.71 103.009 314.417C103.102 313.528 103.153 312.86 103.153 312.431C103.461 309.065 104.461 305.915 106.157 302.959C107.849 300.004 109.937 297.783 112.389 296.272C119.224 292.048 127.072 289.304 135.966 288.077C140.485 287.45 148.218 287.138 159.151 287.138L159.775 283.871L159.906 282.035C160.218 279.684 159.471 277.951 157.627 276.863C155.763 275.758 153.282 275.212 150.155 275.212C147.927 275.212 145.889 275.546 144.033 276.204C142.198 276.863 140.957 277.874 140.341 279.232C139.717 280.591 139.08 281.994 138.404 283.397H113.135C114.696 278.564 117.118 274.553 120.418 271.358C124.532 267.734 129.451 265.298 135.24 264.057C138.991 263.272 144.67 262.861 152.252 262.861C162.518 262.861 170.555 264.454 176.315 267.626C182.061 270.821 184.947 275.135 184.947 280.591C184.947 281.57 184.804 282.684 184.584 283.921L176.192 326.28Z" fill="#595757"/>
<path d="M243.566 289.026C243.637 288.841 243.739 288.327 243.857 287.474C243.992 286.621 244.051 285.921 244.051 285.371C244.051 282.208 242.95 279.726 240.772 277.93C238.595 276.116 235.781 275.209 232.313 275.209C228.288 275.209 224.811 276.319 221.883 278.543C218.98 280.741 216.984 284.234 215.917 289.026H243.566ZM264.4 308.073C260.78 316.196 254.7 321.823 246.148 324.964C239.988 327.238 231.849 328.371 221.714 328.371C210.035 328.371 201.445 326.363 195.926 322.351C190.411 318.339 187.648 312.581 187.648 305.077C187.648 303.66 187.77 302.184 188.019 300.641C188.264 299.098 188.437 297.979 188.525 297.266C190.5 286.512 195.491 278.088 203.521 272.009C211.55 265.899 221.976 262.862 234.823 262.862C244.633 262.862 252.278 264.509 257.789 267.781C264.544 271.77 267.919 278.101 267.919 286.77C267.919 289.003 267.666 291.44 267.172 294.094C266.67 296.747 266.185 299.315 265.683 301.796H213.444C213.191 303.286 213.069 304.599 213.069 305.731C213.069 309.143 214.077 311.751 216.098 313.543C218.115 315.343 220.895 316.227 224.427 316.227C227.309 316.227 229.942 315.623 232.313 314.413C235.106 312.956 237.203 310.835 238.625 308.073H264.4Z" fill="#595757"/>
<path d="M363.38 326.278H329.93L309.833 291.699L338.187 265.707H369.654L336.858 291.699L363.38 326.278ZM301.682 326.278H276.623L294.15 238.379H319.2L301.682 326.278Z" fill="white"/>
<path d="M454.551 265.793L412.722 328.197L400.773 349.293H374.727L389.79 327.141L371.892 265.793H398.916L406.802 304.308L430.755 265.793H454.551Z" fill="white"/>
<path d="M519.336 326.278H494.286L496.02 317.564C491.48 321.36 487.818 323.968 485.016 325.38C481.324 327.226 477.282 328.164 472.937 328.164C465.464 328.164 459.895 326.689 456.216 323.756C452.566 320.8 450.731 316.518 450.731 310.877C450.731 308.783 450.984 306.455 451.456 303.91L459.123 265.792H484.168L477.384 299.767C477.042 301.17 476.886 302.623 476.886 304.113C476.886 307.1 477.595 309.266 478.987 310.638C480.392 311.996 482.286 312.677 484.653 312.677C487.78 312.677 490.814 311.567 493.754 309.388C496.653 307.199 498.45 304.383 499.088 300.954L506.134 265.792H531.416L519.336 326.278Z" fill="white"/>
<path d="M598.114 326.278H573.338L580.102 291.96C580.355 290.914 580.498 289.804 580.498 288.657C580.498 285.76 579.734 283.351 578.249 281.401C576.777 279.47 574.76 278.509 572.216 278.509C568.334 278.509 565.119 280.16 562.524 283.459C559.925 286.762 558.018 291.487 556.79 297.655L551.111 326.278H526.074L538.154 265.707H563.203L561.478 274.411C565.271 270.734 569.203 267.994 573.338 266.194C577.435 264.393 581.637 263.495 585.92 263.495C588.713 263.495 591.409 263.884 594.05 264.682C596.704 265.467 599.282 266.614 601.835 268.112C603.227 268.996 604.48 271.338 605.582 275.156C606.696 278.991 607.088 281.604 606.767 283.008L598.114 326.278Z" fill="white"/>
<path d="M662.705 299.185C663.198 297.073 663.523 295.44 663.683 294.289C664.43 290.318 664.793 287.534 664.793 285.941C663.485 279.759 660.316 276.686 655.283 276.686C650.671 276.686 646.532 278.563 642.84 282.317C639.127 286.072 636.857 290.404 636.043 295.332C635.883 295.972 635.79 296.609 635.79 297.263V298.797C635.79 302.583 636.752 305.805 638.634 308.449C640.52 311.103 643.224 312.43 646.659 312.43C649.798 312.43 652.874 311.143 655.92 308.589C658.962 306.022 661.219 302.895 662.705 299.185ZM684.923 315.408C682.358 328.512 677.518 337.862 670.4 343.426C663.304 349.013 652.916 351.819 639.258 351.819H633.22C624.837 351.819 618.609 351.106 614.597 349.69C608.09 347.415 604.829 343.124 604.829 336.802L605.567 330.881H631.849C631.617 333.751 632.301 335.791 633.946 337.009C635.6 338.228 637.777 338.832 640.499 338.832C641.001 338.832 641.566 338.787 642.216 338.702C642.882 338.616 643.376 338.575 643.705 338.575C645.996 338.228 648.224 337.384 650.363 336.093C652.511 334.789 654.355 332.953 655.92 330.602C656.747 328.869 657.38 327.186 657.827 325.566C658.279 323.959 658.962 320.593 659.861 315.494C655.92 318.747 651.161 321.252 645.6 323.011C640.077 324.776 634.613 325.629 629.254 325.629C622.52 325.629 617.347 323.53 613.715 319.289C610.508 315.494 608.905 310.543 608.905 304.451C608.905 301.536 609.268 298.635 610.014 295.711C611.989 286.176 616.238 278.401 622.731 272.394C629.63 266.041 638.009 262.859 647.891 262.859C652.663 262.859 656.81 263.626 660.295 265.147C663.793 266.659 666.485 269.181 668.384 272.697L669.865 265.707H694.906L684.923 315.408Z" fill="white"/>
</g>
</svg>
