<?xml version="1.0" encoding="UTF-8"?>
<svg xmlns="http://www.w3.org/2000/svg" version="1.1" viewBox="0 0 16 16">
  <defs>
    <style>
      .cls-1 {
        fill: #333;
      }

      .cls-2 {
        fill: #fdd000;
      }

      .cls-3 {
        fill: #e4007f;
      }

      .cls-4 {
        fill: #00a7ea;
      }
    </style>
  </defs>
  <!-- Generator: Adobe Illustrator 28.7.1, SVG Export Plug-In . SVG Version: 1.2.0 Build 142)  -->
  <g>
    <g id="_레이어_1" data-name="레이어_1">
      <g>
        <path d="M13.17,11.61c2.7-1.76,2.83-3.64,2.83-3.64l-9.41-2.41.44,6.06h6.14Z"/>
        <path class="cls-2" d="M4.07,11.61h9.07c2.42-2.47,1.58-4.72,1.58-4.72l-9.6-2.49c.37,3.61-.58,6.2-1.05,7.21Z"/>
        <path class="cls-3" d="M3.98,11.61h9.11c1.36-2.33.73-4.21.69-4.21,0,0-6.58-1.74-9.77-2.59,0,0,1.99,3.5-.04,6.8Z"/>
        <path class="cls-1" d="M3.65,11.61h9.32c.52-1.77.55-3.37-.76-3.88l-6.78-1.25h-2.88s2.63,2.41,1.11,5.13Z"/>
        <path class="cls-4" d="M8.98,8.73L0,6.51s.45-1.13,2.29-1.1c0,0,6.87,1.34,9.91,2.32,0,0-2.14-.5-3.22,1Z"/>
      </g>
    </g>
  </g>
</svg>